<svg width="95" height="60" viewBox="0 0 95 60" fill="none" xmlns="http://www.w3.org/2000/svg">
<path d="M30.7188 37.2344H40.6719V41H26.0312V18.25H30.7188V37.2344ZM47.8438 41H43.3125V24.0938H47.8438V41ZM43.0469 19.7188C43.0469 19.0417 43.2708 18.4844 43.7188 18.0469C44.1771 17.6094 44.7969 17.3906 45.5781 17.3906C46.349 17.3906 46.9635 17.6094 47.4219 18.0469C47.8802 18.4844 48.1094 19.0417 48.1094 19.7188C48.1094 20.4062 47.875 20.9688 47.4062 21.4062C46.9479 21.8438 46.3385 22.0625 45.5781 22.0625C44.8177 22.0625 44.2031 21.8438 43.7344 21.4062C43.276 20.9688 43.0469 20.4062 43.0469 19.7188ZM60.7344 36.3281C60.7344 35.776 60.4583 35.3438 59.9062 35.0312C59.3646 34.7083 58.4896 34.4219 57.2812 34.1719C53.2604 33.3281 51.25 31.6198 51.25 29.0469C51.25 27.5469 51.8698 26.2969 53.1094 25.2969C54.3594 24.2865 55.9896 23.7812 58 23.7812C60.1458 23.7812 61.8594 24.2865 63.1406 25.2969C64.4323 26.3073 65.0781 27.6198 65.0781 29.2344H60.5625C60.5625 28.5885 60.3542 28.0573 59.9375 27.6406C59.5208 27.2135 58.8698 27 57.9844 27C57.224 27 56.6354 27.1719 56.2188 27.5156C55.8021 27.8594 55.5938 28.2969 55.5938 28.8281C55.5938 29.3281 55.8281 29.7344 56.2969 30.0469C56.776 30.349 57.5781 30.6146 58.7031 30.8438C59.8281 31.0625 60.776 31.3125 61.5469 31.5938C63.9323 32.4688 65.125 33.9844 65.125 36.1406C65.125 37.6823 64.4635 38.9323 63.1406 39.8906C61.8177 40.8385 60.1094 41.3125 58.0156 41.3125C56.599 41.3125 55.3385 41.0625 54.2344 40.5625C53.1406 40.0521 52.2812 39.3594 51.6562 38.4844C51.0312 37.599 50.7188 36.6458 50.7188 35.625H55C55.0417 36.4271 55.3385 37.0417 55.8906 37.4688C56.4427 37.8958 57.1823 38.1094 58.1094 38.1094C58.974 38.1094 59.625 37.9479 60.0625 37.625C60.5104 37.2917 60.7344 36.8594 60.7344 36.3281ZM73.4531 19.9375V24.0938H76.3438V27.4062H73.4531V35.8438C73.4531 36.4688 73.5729 36.9167 73.8125 37.1875C74.0521 37.4583 74.5104 37.5938 75.1875 37.5938C75.6875 37.5938 76.1302 37.5573 76.5156 37.4844V40.9062C75.6302 41.1771 74.7188 41.3125 73.7812 41.3125C70.6146 41.3125 69 39.7135 68.9375 36.5156V27.4062H66.4688V24.0938H68.9375V19.9375H73.4531ZM77.6875 32.3906C77.6875 30.7135 78.0104 29.2188 78.6562 27.9062C79.3021 26.5938 80.2292 25.5781 81.4375 24.8594C82.6562 24.1406 84.0677 23.7812 85.6719 23.7812C87.9531 23.7812 89.8125 24.4792 91.25 25.875C92.6979 27.2708 93.5052 29.1667 93.6719 31.5625L93.7031 32.7188C93.7031 35.3125 92.9792 37.3958 91.5312 38.9688C90.0833 40.5312 88.1406 41.3125 85.7031 41.3125C83.2656 41.3125 81.3177 40.5312 79.8594 38.9688C78.4115 37.4062 77.6875 35.2812 77.6875 32.5938V32.3906ZM82.2031 32.7188C82.2031 34.3229 82.5052 35.5521 83.1094 36.4062C83.7135 37.25 84.5781 37.6719 85.7031 37.6719C86.7969 37.6719 87.651 37.2552 88.2656 36.4219C88.8802 35.5781 89.1875 34.2344 89.1875 32.3906C89.1875 30.8177 88.8802 29.599 88.2656 28.7344C87.651 27.8698 86.7865 27.4375 85.6719 27.4375C84.5677 27.4375 83.7135 27.8698 83.1094 28.7344C82.5052 29.5885 82.2031 30.9167 82.2031 32.7188Z" fill="#FCD783"/>
<rect opacity="0.2" x="1.5" y="1.5" width="57" height="57" fill="#78BCC4" stroke="#78BCC4" stroke-width="3"/>
</svg>
